# xmcd CD database file
#
# Track frame offsets:
#	150
#	14816
#	30944
#	47012
#	66122
#	83524
#	98947
#	119147
#	139797
#	158117
#	175112
#	193952
#	214040
#
# Disc length: 3121 seconds
#
# Revision: 1
# Processed by: cddbd v1.5.1PL0 Copyright (c) Steve Scherf et al.
# Submitted via: CDex 1.50Beta7
#
DISCID=b30c2f0d
DTITLE=Nichole Wright - Fire
DYEAR=2004
DGENRE=Jazz
TTITLE0=Do It
TTITLE1=Fire
TTITLE2=We Can Share the Love
TTITLE3=Get Away
TTITLE4=Ladies Anthem
TTITLE5=Better Way
TTITLE6=Something About You
TTITLE7=Promise
TTITLE8=Long Ride
TTITLE9=Lift Them Up
TTITLE10=His Day's Ciming
TTITLE11=Question
TTITLE12=Here Comes the Sun
EXTD=YEAR: 2004
EXTT0=
EXTT1=
EXTT2=
EXTT3=
EXTT4=
EXTT5=
EXTT6=
EXTT7=
EXTT8=
EXTT9=
EXTT10=
EXTT11=
EXTT12=
PLAYORDER=
